<svg xml:space="preserve" viewBox="0 0 100 100" y="0" x="0" xmlns="http://www.w3.org/2000/svg" id="圖層_1" version="1.1" style="height: 100%; width: 100%; background: rgba(255, 255, 255, 0.055);" width="128px" height="128px"><g class="ldl-scale" style="transform-origin: 50% 50%; transform: rotate(0deg) scale(0.8, 0.8);"><g class="ldl-ani"><g class="ldl-layer"><g class="ldl-ani" style="transform: scale(0.91); transform-origin: 50px 50px; animation: 1.11111s linear -0.583333s infinite normal forwards running breath-74dec89d-b92d-45b9-8b06-17ef8a709bf3;"><path fill="#333" d="M85.7 18.3H14.3c-3.7 0-6.8 3-6.8 6.8v56.4c0 3.7 3 6.8 6.8 6.8h71.5c3.7 0 6.8-3 6.8-6.8V25.1c-.1-3.7-3.1-6.8-6.9-6.8z" style="fill: rgb(51, 51, 51);"></path></g></g><g class="ldl-layer"><g class="ldl-ani"><g><g class="ldl-layer"><g class="ldl-ani" style="transform: scale(0.91); transform-origin: 50px 50px; animation: 1.11111s linear -0.611111s infinite normal forwards running breath-74dec89d-b92d-45b9-8b06-17ef8a709bf3;"><path fill="#e0e0e0" d="M29.7 35.9c-4.3 0-7.8-3.5-7.8-7.8V17.6c0-4.3 3.5-7.8 7.8-7.8s7.8 3.5 7.8 7.8v10.6c0 4.3-3.5 7.7-7.8 7.7z" style="fill: rgb(224, 224, 224);"></path></g></g><g class="ldl-layer"><g class="ldl-ani" style="transform: scale(0.91); transform-origin: 50px 50px; animation: 1.11111s linear -0.638889s infinite normal forwards running breath-74dec89d-b92d-45b9-8b06-17ef8a709bf3;"><path fill="#333" d="M29.7 11.8c3.2 0 5.8 2.6 5.8 5.8v10.6c0 3.2-2.6 5.8-5.8 5.8s-5.8-2.6-5.8-5.8V17.6c0-3.2 2.6-5.8 5.8-5.8m0-4c-5.4 0-9.8 4.4-9.8 9.8v10.6c0 5.4 4.4 9.8 9.8 9.8s9.8-4.4 9.8-9.8V17.6c0-5.4-4.4-9.8-9.8-9.8z" style="fill: rgb(51, 51, 51);"></path></g></g></g></g></g><g class="ldl-layer"><g class="ldl-ani"><g><g class="ldl-layer"><g class="ldl-ani" style="transform: scale(0.91); transform-origin: 50px 50px; animation: 1.11111s linear -0.666667s infinite normal forwards running breath-74dec89d-b92d-45b9-8b06-17ef8a709bf3;"><path fill="#e0e0e0" d="M69.6 35.9c-4.3 0-7.8-3.5-7.8-7.8V17.6c0-4.3 3.5-7.8 7.8-7.8s7.8 3.5 7.8 7.8v10.6c0 4.3-3.5 7.7-7.8 7.7z" style="fill: rgb(224, 224, 224);"></path></g></g><g class="ldl-layer"><g class="ldl-ani" style="transform: scale(0.91); transform-origin: 50px 50px; animation: 1.11111s linear -0.694444s infinite normal forwards running breath-74dec89d-b92d-45b9-8b06-17ef8a709bf3;"><path fill="#333" d="M69.6 11.8c3.2 0 5.8 2.6 5.8 5.8v10.6c0 3.2-2.6 5.8-5.8 5.8-3.2 0-5.8-2.6-5.8-5.8V17.6c0-3.2 2.6-5.8 5.8-5.8m0-4c-5.4 0-9.8 4.4-9.8 9.8v10.6c0 5.4 4.4 9.8 9.8 9.8s9.8-4.4 9.8-9.8V17.6c0-5.4-4.4-9.8-9.8-9.8z" style="fill: rgb(51, 51, 51);"></path></g></g></g></g></g><g class="ldl-layer"><g class="ldl-ani" style="transform: scale(0.91); transform-origin: 50px 50px; animation: 1.11111s linear -0.722222s infinite normal forwards running breath-74dec89d-b92d-45b9-8b06-17ef8a709bf3;"><path d="M44.2 71.7h11.6v10.7H44.2z" fill="#fff" style="fill: rgb(255, 255, 255);"></path></g></g><g class="ldl-layer"><g class="ldl-ani" style="transform: scale(0.91); transform-origin: 50px 50px; animation: 1.11111s linear -0.75s infinite normal forwards running breath-74dec89d-b92d-45b9-8b06-17ef8a709bf3;"><path d="M28.8 71.7h11.6v10.7H28.8z" fill="#fff" style="fill: rgb(255, 255, 255);"></path></g></g><g class="ldl-layer"><g class="ldl-ani" style="transform: scale(0.91); transform-origin: 50px 50px; animation: 1.11111s linear -0.777778s infinite normal forwards running breath-74dec89d-b92d-45b9-8b06-17ef8a709bf3;"><path d="M44.2 42.7h11.6v10.6H44.2z" fill="#fff" style="fill: rgb(255, 255, 255);"></path></g></g><g class="ldl-layer"><g class="ldl-ani" style="transform: scale(0.91); transform-origin: 50px 50px; animation: 1.11111s linear -0.805556s infinite normal forwards running breath-74dec89d-b92d-45b9-8b06-17ef8a709bf3;"><path d="M59.7 57.2h11.6v10.7H59.7z" fill="#e15b64" style="fill: rgb(225, 91, 100);"></path></g></g><g class="ldl-layer"><g class="ldl-ani" style="transform: scale(0.91); transform-origin: 50px 50px; animation: 1.11111s linear -0.833333s infinite normal forwards running breath-74dec89d-b92d-45b9-8b06-17ef8a709bf3;"><path d="M59.7 71.7h11.6v10.7H59.7z" fill="#fff" style="fill: rgb(255, 255, 255);"></path></g></g><g class="ldl-layer"><g class="ldl-ani" style="transform: scale(0.91); transform-origin: 50px 50px; animation: 1.11111s linear -0.861111s infinite normal forwards running breath-74dec89d-b92d-45b9-8b06-17ef8a709bf3;"><path d="M13.3 57.2h11.6v10.7H13.3z" fill="#fff" style="fill: rgb(255, 255, 255);"></path></g></g><g class="ldl-layer"><g class="ldl-ani" style="transform: scale(0.91); transform-origin: 50px 50px; animation: 1.11111s linear -0.888889s infinite normal forwards running breath-74dec89d-b92d-45b9-8b06-17ef8a709bf3;"><path d="M28.8 42.7h11.6v10.6H28.8z" fill="#fff" style="fill: rgb(255, 255, 255);"></path></g></g><g class="ldl-layer"><g class="ldl-ani" style="transform: scale(0.91); transform-origin: 50px 50px; animation: 1.11111s linear -0.916667s infinite normal forwards running breath-74dec89d-b92d-45b9-8b06-17ef8a709bf3;"><path d="M59.7 42.7h11.6v10.6H59.7z" fill="#f8b26a" style="fill: rgb(248, 178, 106);"></path></g></g><g class="ldl-layer"><g class="ldl-ani" style="transform: scale(0.91); transform-origin: 50px 50px; animation: 1.11111s linear -0.944444s infinite normal forwards running breath-74dec89d-b92d-45b9-8b06-17ef8a709bf3;"><path fill="#fff" d="M24.9 42.7H14.3c-.3 0-.7 0-1-.1v10.7h11.6V42.7z" style="fill: rgb(255, 255, 255);"></path></g></g><g class="ldl-layer"><g class="ldl-ani" style="transform: scale(0.91); transform-origin: 50px 50px; animation: 1.11111s linear -0.972222s infinite normal forwards running breath-74dec89d-b92d-45b9-8b06-17ef8a709bf3;"><path d="M75.1 57.2h11.6v10.7H75.1z" fill="#fff" style="fill: rgb(255, 255, 255);"></path></g></g><g class="ldl-layer"><g class="ldl-ani" style="transform: scale(0.91); transform-origin: 50px 50px; animation: 1.11111s linear -1s infinite normal forwards running breath-74dec89d-b92d-45b9-8b06-17ef8a709bf3;"><path fill="#fff" d="M24.9 71.7H13.3v9.8c0 .5.4.9.9 1h10.7V71.7z" style="fill: rgb(255, 255, 255);"></path></g></g><g class="ldl-layer"><g class="ldl-ani" style="transform: scale(0.91); transform-origin: 50px 50px; animation: 1.11111s linear -1.02778s infinite normal forwards running breath-74dec89d-b92d-45b9-8b06-17ef8a709bf3;"><path d="M44.2 57.2h11.6v10.7H44.2z" fill="#e15b64" style="fill: rgb(225, 91, 100);"></path></g></g><g class="ldl-layer"><g class="ldl-ani" style="transform: scale(0.91); transform-origin: 50px 50px; animation: 1.11111s linear -1.05556s infinite normal forwards running breath-74dec89d-b92d-45b9-8b06-17ef8a709bf3;"><path fill="#fff" d="M86.7 81.5v-9.8H75.1v10.7h10.7c.5 0 .9-.4.9-.9z" style="fill: rgb(255, 255, 255);"></path></g></g><g class="ldl-layer"><g class="ldl-ani" style="transform: scale(0.91); transform-origin: 50px 50px; animation: 1.11111s linear -1.08333s infinite normal forwards running breath-74dec89d-b92d-45b9-8b06-17ef8a709bf3;"><path d="M28.8 57.2h11.6v10.7H28.8z" fill="#e15b64" style="fill: rgb(225, 91, 100);"></path></g></g><g class="ldl-layer"><g class="ldl-ani" style="transform: scale(0.91); transform-origin: 50px 50px; animation: 1.11111s linear -1.11111s infinite normal forwards running breath-74dec89d-b92d-45b9-8b06-17ef8a709bf3;"><path fill="#f8b26a" d="M75.1 42.7v10.6h11.6V42.6c-.3.1-.6.1-1 .1H75.1z" style="fill: rgb(248, 178, 106);"></path></g></g></g></g></svg>